<svg width="8" height="15" viewBox="0 0 8 15" fill="none" xmlns="http://www.w3.org/2000/svg">
<path d="M7.79167 3.54167V10.9792C7.79167 12.0124 7.38121 13.0033 6.6506 13.7339C5.91999 14.4645 4.92907 14.875 3.89583 14.875C2.86259 14.875 1.87167 14.4645 1.14106 13.7339C0.410453 13.0033 0 12.0124 0 10.9792V2.83333C0 2.08189 0.298511 1.36122 0.829864 0.829864C1.36122 0.298511 2.08189 0 2.83333 0C3.58478 0 4.30545 0.298511 4.8368 0.829864C5.36816 1.36122 5.66667 2.08189 5.66667 2.83333V10.2708C5.66667 10.7405 5.4801 11.1909 5.148 11.523C4.81591 11.8551 4.36549 12.0417 3.89583 12.0417C3.42618 12.0417 2.97576 11.8551 2.64367 11.523C2.31157 11.1909 2.125 10.7405 2.125 10.2708V3.54167H2.83333V10.2708C2.83333 10.5526 2.94527 10.8229 3.14453 11.0221C3.34379 11.2214 3.61404 11.3333 3.89583 11.3333C4.17763 11.3333 4.44788 11.2214 4.64713 11.0221C4.84639 10.8229 4.95833 10.5526 4.95833 10.2708V2.83333C4.95833 2.26975 4.73445 1.72925 4.33594 1.33073C3.93742 0.932217 3.39692 0.708333 2.83333 0.708333C2.26975 0.708333 1.72925 0.932217 1.33073 1.33073C0.932217 1.72925 0.708333 2.26975 0.708333 2.83333V10.9792C0.708333 12.75 2.125 14.1667 3.89583 14.1667C5.66667 14.1667 7.08333 12.75 7.08333 10.9792V3.54167H7.79167Z" fill="#807A7A"/>
</svg>
