<svg width="26" height="26" viewBox="0 0 26 26" fill="none" xmlns="http://www.w3.org/2000/svg">
<path d="M14.0736 14.0577C13.9749 14.0576 13.8797 14.0934 13.8055 14.1584L4.61309 22.2201L5.14919 22.8311L14.3416 14.7702C14.404 14.7158 14.4484 14.6436 14.4686 14.5633C14.4889 14.483 14.4841 14.3984 14.4549 14.3209C14.4258 14.2433 14.3736 14.1766 14.3054 14.1295C14.2373 14.0825 14.1564 14.0574 14.0736 14.0577Z" fill="#7B7B7B"/>
<path d="M17.7246 0C12.7357 0 9.75468 3.92438 9.75468 7.71875C9.75468 8.81237 10.0162 10.0173 10.4029 10.7997L6.7298 12.6368C6.66243 12.6706 6.60578 12.7224 6.56618 12.7866C6.52659 12.8507 6.50562 12.9246 6.50562 13V16.25H4.06882L3.97704 16.2549C3.43607 16.2914 3.27443 16.4637 3.25656 17.0625V20.3125H0.819757C0.714975 20.3125 0.642685 20.3011 0.593948 20.2938C0.495665 20.2784 0.312092 20.2499 0.152889 20.3929C-0.0111885 20.5392 -0.00387955 20.7244 0.00261879 20.8878C0.00424194 20.9462 0.00749207 21.0234 0.00749207 21.125V24.8064C0.0077076 25.1229 0.133492 25.4264 0.357216 25.6502C0.58094 25.874 0.884315 25.9998 1.20071 26H4.34824C4.63764 25.9994 4.9171 25.8944 5.13533 25.7043L15.8467 16.3118C16.3738 16.4174 17.1707 16.5547 17.7254 16.5547C22.2879 16.5547 26 12.8416 26 8.27775C26 3.71394 22.2879 0 17.7246 0ZM17.7246 15.7422C17.3177 15.7422 16.6208 15.6447 15.8126 15.4757C15.751 15.4624 15.6871 15.4638 15.6262 15.4798C15.5652 15.4957 15.5089 15.5258 15.4617 15.5675L4.60086 25.0916C4.53099 25.1531 4.44126 25.1871 4.34824 25.1875H1.20071C0.990334 25.1875 0.819757 25.0169 0.819757 24.8064V21.125H3.66269C3.7704 21.125 3.8737 21.0822 3.94987 21.006C4.02603 20.9298 4.06882 20.8265 4.06882 20.7188V17.0625H6.91175C7.01946 17.0625 7.12277 17.0197 7.19893 16.9435C7.2751 16.8673 7.31788 16.764 7.31788 16.6562V13.2511L11.155 11.3319C11.2077 11.3056 11.254 11.2682 11.2908 11.2222C11.3276 11.1762 11.3539 11.1227 11.368 11.0655C11.382 11.0083 11.3835 10.9488 11.3722 10.8909C11.361 10.8331 11.3373 10.7784 11.3029 10.7307C10.9455 10.2375 10.5669 9.01306 10.5669 7.71875C10.5669 4.32413 13.2442 0.8125 17.7246 0.8125C21.8396 0.8125 25.1877 4.16162 25.1877 8.27775C25.1877 12.3939 21.8396 15.7422 17.7246 15.7422Z" fill="#7B7B7B"/>
<path d="M19.0958 4.0625C17.5281 4.0625 16.2529 5.33813 16.2529 6.90625C16.2529 8.47438 17.5281 9.75 19.0958 9.75C20.6635 9.75 21.9387 8.47438 21.9387 6.90625C21.9387 5.33813 20.6635 4.0625 19.0958 4.0625ZM19.0958 8.9375C17.9765 8.9375 17.0651 8.02588 17.0651 6.90625C17.0651 5.78663 17.9765 4.875 19.0958 4.875C20.2151 4.875 21.1265 5.78663 21.1265 6.90625C21.1265 8.02588 20.2151 8.9375 19.0958 8.9375Z" fill="#7B7B7B"/>
</svg>
