<svg width="30" height="17" viewBox="0 0 30 17" fill="none" xmlns="http://www.w3.org/2000/svg">
<path d="M3.39394 0.0363579C2.84848 0.169691 2.35152 0.581812 2.09091 1.10302L1.93939 1.40606L1.92121 4.32121L1.90303 7.24242L1.62424 7.28484C1 7.37575 0.436364 7.79393 0.151515 8.37575L0 8.67878V10.6485C0 12.5697 0.00606061 12.6242 0.139394 12.8909C0.212121 13.0424 0.351515 13.2667 0.448485 13.3818C0.672727 13.6485 1.24242 13.9576 1.61818 14.0121L1.90303 14.0545L1.92121 15.1939C1.93939 16.2364 1.95152 16.3515 2.06667 16.503C2.34545 16.8788 2.46061 16.9212 3.28485 16.9394C3.70303 16.9515 4.13939 16.9454 4.24848 16.9212C4.6303 16.8545 4.79394 16.6364 5.46061 15.3091L6.09091 14.0424H15H23.9091L24.5394 15.3091C25.2061 16.6364 25.3697 16.8545 25.7515 16.9212C25.8606 16.9454 26.297 16.9515 26.7152 16.9394C27.5394 16.9212 27.6545 16.8788 27.9333 16.503C28.0485 16.3515 28.0606 16.2364 28.0788 15.1939L28.097 14.0545L28.3818 14.0121C28.697 13.9636 29.1333 13.7636 29.4061 13.5333C29.503 13.4485 29.6788 13.2121 29.7939 13L30 12.6182V10.6485V8.67878L29.7939 8.29696C29.4848 7.72121 29 7.37575 28.3818 7.28484L28.097 7.24242L28.0788 4.32121L28.0606 1.40606L27.8545 1.02424C27.6303 0.606054 27.3758 0.36363 26.9394 0.15151L26.6667 0.0121155L15.1212 -5.72205e-06C8.7697 -5.72205e-06 3.49697 0.0121155 3.39394 0.0363579ZM26.6727 1.10909C26.7636 1.17575 26.897 1.30909 26.9636 1.39999C27.0848 1.56363 27.0909 1.64848 27.1091 4.41212L27.1273 7.25454H26.5091C26.0424 7.25454 25.9091 7.23636 25.9333 7.17575C26.2121 6.50303 26.2061 5.93939 25.897 5.36363C25.6909 4.96969 25.4303 4.72727 25 4.51515L24.7273 4.37575H21.303H17.8788L17.5758 4.52727C16.7212 4.95151 16.2788 5.91515 16.5394 6.77575C16.6 6.95757 16.6606 7.13939 16.6727 7.17575C16.703 7.23636 16.3394 7.25454 15 7.25454C13.6606 7.25454 13.297 7.23636 13.3273 7.17575C13.6061 6.50303 13.6 5.93939 13.2909 5.36363C13.0848 4.96969 12.8242 4.72727 12.3939 4.51515L12.1212 4.37575H8.69697H5.27273L4.9697 4.52727C4.11515 4.95151 3.67273 5.91515 3.93333 6.77575C3.99394 6.95757 4.05455 7.13939 4.06667 7.17575C4.09091 7.23636 3.95758 7.25454 3.49091 7.25454H2.87879V4.50303C2.87879 2.69696 2.90303 1.6909 2.94545 1.57575C3.0303 1.35151 3.2303 1.13333 3.45455 1.03636C3.60606 0.969691 5.63636 0.95757 15.0727 0.969691L26.5091 0.981812L26.6727 1.10909ZM12.1273 5.47272C12.4485 5.70909 12.5455 5.90302 12.5455 6.28484C12.5455 6.66666 12.4485 6.8606 12.1273 7.09696C11.9636 7.21818 11.8848 7.22424 8.8303 7.24242C6.73939 7.25454 5.62424 7.24242 5.47273 7.19393C4.86061 7.01818 4.62424 6.17575 5.04242 5.67272C5.35151 5.30909 5.27879 5.31515 8.7697 5.33333C11.8848 5.34545 11.9636 5.34545 12.1273 5.47272ZM24.7333 5.47272C25.0545 5.70909 25.1515 5.90302 25.1515 6.28484C25.1515 6.66666 25.0545 6.8606 24.7333 7.09696C24.5697 7.21818 24.4909 7.22424 21.4364 7.24242C19.3455 7.25454 18.2303 7.24242 18.0788 7.19393C17.4667 7.01818 17.2303 6.17575 17.6485 5.67272C17.9576 5.30909 17.8848 5.31515 21.3758 5.33333C24.4909 5.34545 24.5697 5.34545 24.7333 5.47272ZM28.6121 8.38181C28.703 8.44848 28.8364 8.58181 28.903 8.67272C29.0242 8.8303 29.0303 8.91515 29.0303 10.6485C29.0303 12.3818 29.0242 12.4667 28.903 12.6242C28.8364 12.7151 28.703 12.8485 28.6121 12.9151L28.4485 13.0424H15H1.55152L1.38788 12.9151C1.29697 12.8485 1.16364 12.7151 1.09697 12.6242C0.975758 12.4667 0.969697 12.3636 0.951515 10.8121C0.939394 9.90303 0.951515 9.07878 0.969697 8.96969C1.01212 8.72727 1.26667 8.41818 1.51515 8.30909C1.66667 8.24242 4.04242 8.2303 15.0727 8.24242L28.4485 8.25454L28.6121 8.38181ZM4.51515 15.0121L4.0303 15.9818H3.45455H2.87879V15.0121V14.0424H3.93939H5L4.51515 15.0121ZM27.1212 15.0121V15.9818H26.5455H25.9697L25.4848 15.0121L25 14.0424H26.0606H27.1212V15.0121Z" fill="#969696"/>
</svg>
