<svg width="26" height="26" viewBox="0 0 26 26" fill="none" xmlns="http://www.w3.org/2000/svg">
<path d="M12.9999 23.761C12.7088 23.7624 12.4215 23.6953 12.161 23.5653C11.9006 23.4353 11.6744 23.2459 11.5006 23.0124L6.01781 15.7085C5.11064 14.4293 4.57273 12.9251 4.46289 11.3607C4.35306 9.79626 4.67554 8.23174 5.39507 6.83825C6.1146 5.44476 7.20345 4.27596 8.54257 3.45967C9.88168 2.64339 11.4195 2.21106 12.9878 2.20996C14.556 2.20887 16.0944 2.63905 17.4347 3.45346C18.7749 4.26787 19.8654 5.43515 20.5869 6.82764C21.3084 8.22012 21.633 9.78419 21.5254 11.3488C21.4177 12.9134 20.8819 14.4182 19.9766 15.6988L14.5003 23.0102C14.3265 23.2441 14.1002 23.434 13.8396 23.5644C13.5789 23.6948 13.2913 23.7621 12.9999 23.761ZM12.9912 3.32171C11.1602 3.31596 9.39248 3.99131 8.03172 5.21646C6.66715 6.43489 5.79747 8.11195 5.58778 9.92926C5.37809 11.7466 5.84299 13.5776 6.89422 15.0748L12.3661 22.3624C12.4395 22.4609 12.535 22.5409 12.6448 22.5958C12.7547 22.6507 12.876 22.6791 12.9988 22.6787C13.1219 22.6789 13.2434 22.6504 13.3536 22.5955C13.4638 22.5406 13.5596 22.4608 13.6336 22.3624L19.098 15.0672C19.8435 14.0122 20.3018 12.7814 20.4278 11.4957C20.5537 10.2099 20.3431 8.91358 19.8165 7.73392C19.2898 6.55426 18.4654 5.53189 17.4241 4.76724C16.3829 4.0026 15.1606 3.52199 13.8774 3.37263C13.5832 3.33903 13.2873 3.32203 12.9912 3.32171Z" fill="#969696"/>
<path d="M13.0001 13.5417C12.4644 13.5417 11.9408 13.3828 11.4954 13.0852C11.05 12.7876 10.7029 12.3647 10.4979 11.8698C10.2929 11.3749 10.2393 10.8303 10.3438 10.305C10.4483 9.7796 10.7062 9.29702 11.085 8.91825C11.4638 8.53949 11.9463 8.28154 12.4717 8.17704C12.9971 8.07254 13.5416 8.12617 14.0365 8.33116C14.5314 8.53615 14.9544 8.88328 15.252 9.32867C15.5496 9.77405 15.7084 10.2977 15.7084 10.8333C15.7084 11.5516 15.4231 12.2405 14.9152 12.7484C14.4073 13.2563 13.7184 13.5417 13.0001 13.5417ZM13.0001 9.20833C12.6787 9.20833 12.3645 9.30364 12.0973 9.4822C11.8301 9.66075 11.6218 9.91454 11.4988 10.2115C11.3758 10.5084 11.3436 10.8351 11.4063 11.1504C11.469 11.4656 11.6238 11.7551 11.851 11.9824C12.0783 12.2096 12.3678 12.3644 12.6831 12.4271C12.9983 12.4898 13.325 12.4576 13.6219 12.3346C13.9189 12.2116 14.1727 12.0034 14.3512 11.7361C14.5298 11.4689 14.6251 11.1547 14.6251 10.8333C14.6251 10.4024 14.4539 9.98903 14.1491 9.68429C13.8444 9.37954 13.4311 9.20833 13.0001 9.20833Z" fill="#969696"/>
</svg>
