<svg width="26" height="26" viewBox="0 0 26 26" fill="none" xmlns="http://www.w3.org/2000/svg">
<rect width="26" height="26" fill="#D2D2D2"/>
<g id="&#208;&#144;&#208;&#186;&#208;&#178;&#208;&#176;&#209;&#128;&#208;&#181;&#208;&#187;&#209;&#140; 1366" clip-path="url(#clip0_59_2)">
<rect width="1366" height="6061" transform="translate(-53 -5525)" fill="#F7F7F7"/>
<g id="mdi-light:clock">
<path id="Vector" d="M12.4584 3.25C15.1879 3.25 17.8057 4.3343 19.7357 6.26436C21.6658 8.19442 22.7501 10.8121 22.7501 13.5417C22.7501 16.2712 21.6658 18.8889 19.7357 20.819C17.8057 22.749 15.1879 23.8333 12.4584 23.8333C9.72889 23.8333 7.11117 22.749 5.18111 20.819C3.25105 18.8889 2.16675 16.2712 2.16675 13.5417C2.16675 10.8121 3.25105 8.19442 5.18111 6.26436C7.11117 4.3343 9.72889 3.25 12.4584 3.25ZM12.4584 4.33333C10.0162 4.33333 7.67404 5.30349 5.94714 7.03039C4.22024 8.75729 3.25008 11.0995 3.25008 13.5417C3.25008 15.9839 4.22024 18.326 5.94714 20.0529C7.67404 21.7798 10.0162 22.75 12.4584 22.75C13.6677 22.75 14.8651 22.5118 15.9823 22.0491C17.0995 21.5863 18.1146 20.908 18.9697 20.0529C19.8248 19.1979 20.503 18.1827 20.9658 17.0655C21.4286 15.9483 21.6667 14.7509 21.6667 13.5417C21.6667 11.0995 20.6966 8.75729 18.9697 7.03039C17.2428 5.30349 14.9006 4.33333 12.4584 4.33333ZM11.9167 7.58333H13.0001V13.455L18.0917 16.3908L17.5501 17.3333L11.9167 14.0833V7.58333Z" fill="#969696"/>
</g>
</g>
<defs>
<clipPath id="clip0_59_2">
<rect width="1366" height="6061" fill="white" transform="translate(-53 -5525)"/>
</clipPath>
</defs>
</svg>
