<svg width="35" height="35" viewBox="0 0 35 35" fill="none" xmlns="http://www.w3.org/2000/svg">
<path d="M25.4006 20.2918L21.0256 18.1043C20.9395 18.0614 20.8436 18.042 20.7476 18.048C20.6515 18.054 20.5588 18.0852 20.4787 18.1385L18.2037 19.6561C16.9532 19.0563 15.9447 18.0478 15.3449 16.7973L16.8625 14.5223C16.9158 14.4422 16.947 14.3494 16.953 14.2534C16.959 14.1574 16.9396 14.0615 16.8967 13.9754L14.7092 9.60039C14.6638 9.50907 14.5938 9.43226 14.5071 9.37862C14.4203 9.32499 14.3203 9.29667 14.2184 9.29688C12.913 9.29688 11.6611 9.81543 10.7381 10.7385C9.81504 11.6615 9.29649 12.9134 9.29649 14.2188C9.29974 17.2636 10.5107 20.1828 12.6638 22.3358C14.8168 24.4889 17.736 25.6999 20.7809 25.7031C22.0862 25.7031 23.3381 25.1846 24.2612 24.2615C25.1842 23.3385 25.7027 22.0866 25.7027 20.7813C25.7028 20.6797 25.6746 20.58 25.6212 20.4936C25.5678 20.4071 25.4914 20.3373 25.4006 20.2918ZM20.7809 24.6094C18.026 24.6065 15.3848 23.5108 13.4368 21.5628C11.4888 19.6148 10.3931 16.9736 10.3902 14.2188C10.3901 13.2606 10.7492 12.3373 11.3967 11.6311C12.0442 10.9248 12.933 10.4871 13.8875 10.4043L15.7742 14.1791L14.2703 16.4404C14.2202 16.515 14.1892 16.6009 14.1802 16.6903C14.1711 16.7797 14.1842 16.87 14.2184 16.9531C14.945 18.6805 16.3191 20.0547 18.0465 20.7813C18.1297 20.8158 18.2202 20.8293 18.3099 20.8205C18.3996 20.8117 18.4857 20.7808 18.5605 20.7307L20.8219 19.2268L24.5967 21.1135C24.5135 22.068 24.0755 22.9566 23.369 23.6039C22.6625 24.2511 21.739 24.6099 20.7809 24.6094ZM17.4996 3.82813C15.1195 3.82768 12.7804 4.44862 10.7139 5.62952C8.64732 6.81042 6.92486 8.51036 5.71687 10.5612C4.50889 12.612 3.85722 14.9427 3.82635 17.3226C3.79547 19.7026 4.38645 22.0494 5.54082 24.1309L3.91387 29.0104C3.81747 29.2994 3.80348 29.6096 3.87347 29.9062C3.94346 30.2028 4.09466 30.474 4.31013 30.6895C4.5256 30.905 4.79683 31.0562 5.0934 31.1261C5.38998 31.1961 5.70019 31.1821 5.98926 31.0857L10.8688 29.4588C12.694 30.4702 14.7266 31.0503 16.8107 31.1547C18.8948 31.2592 20.9752 30.8852 22.8924 30.0614C24.8097 29.2376 26.5129 27.9858 27.8716 26.4021C29.2303 24.8183 30.2085 22.9445 30.7311 20.9243C31.2538 18.9041 31.3071 16.791 30.8869 14.747C30.4667 12.703 29.5842 10.7823 28.307 9.13211C27.0298 7.48188 25.3918 6.14591 23.5185 5.22655C21.6452 4.30718 19.5863 3.82883 17.4996 3.82813ZM17.4996 30.0781C15.2881 30.0788 13.1156 29.4964 11.201 28.3897C11.1178 28.3418 11.0235 28.3163 10.9275 28.3158C10.8685 28.3158 10.8098 28.3255 10.7539 28.3445L5.64336 30.048C5.547 30.0802 5.4436 30.0848 5.34474 30.0615C5.24588 30.0382 5.15548 29.9878 5.08365 29.916C5.01183 29.8441 4.96143 29.7537 4.9381 29.6549C4.91477 29.556 4.91943 29.4526 4.95156 29.3563L6.65508 24.2457C6.67965 24.1722 6.68834 24.0944 6.68056 24.0173C6.67278 23.9402 6.64872 23.8657 6.60996 23.7986C5.22323 21.4016 4.66631 18.6139 5.0256 15.8681C5.38488 13.1222 6.6403 10.5717 8.59708 8.61218C10.5539 6.65264 13.1026 5.39364 15.848 5.0305C18.5933 4.66735 21.3818 5.22035 23.7807 6.60371C26.1797 7.98708 28.0551 10.1235 29.116 12.6815C30.1768 15.2395 30.3639 18.076 29.6481 20.7512C28.9323 23.4263 27.3537 25.7905 25.1571 27.4769C22.9606 29.1633 20.2689 30.0776 17.4996 30.0781Z" fill="#262626"/>
</svg>
