<svg width="35" height="35" viewBox="0 0 35 35" fill="none" xmlns="http://www.w3.org/2000/svg">
<path d="M32.0288 3.99453C31.9344 3.913 31.8196 3.85882 31.6967 3.83786C31.5738 3.81689 31.4475 3.82994 31.3315 3.87558L3.62407 14.7187C3.34162 14.8284 3.10246 15.0269 2.94263 15.2843C2.78281 15.5417 2.71098 15.8441 2.73798 16.1458C2.76498 16.4476 2.88934 16.7324 3.09232 16.9574C3.2953 17.1823 3.5659 17.3352 3.86333 17.393L11.484 18.8887V27.3434C11.484 27.6705 11.5817 27.9901 11.7647 28.2612C11.9476 28.5324 12.2075 28.7426 12.5108 28.865C12.706 28.9433 12.9143 28.9837 13.1247 28.984C13.3448 28.9835 13.5626 28.9387 13.7651 28.8522C13.9675 28.7658 14.1505 28.6395 14.3032 28.4809L18.1313 24.516L24.0102 29.6717C24.3082 29.9345 24.6915 30.0803 25.0889 30.0818C25.2625 30.0811 25.4349 30.0539 25.6002 30.0012C25.8709 29.9155 26.1144 29.7603 26.3063 29.5511C26.4982 29.3419 26.6319 29.086 26.694 28.809L32.2475 4.66445C32.2753 4.54345 32.2697 4.41715 32.2311 4.29913C32.1926 4.1811 32.1226 4.0758 32.0288 3.99453ZM3.82778 16.0477C3.81976 15.9815 3.83466 15.9146 3.86999 15.8582C3.90532 15.8017 3.95895 15.759 4.02192 15.7373L27.8999 6.39257L11.9038 17.8564L4.07524 16.3197C4.00889 16.31 3.94796 16.2776 3.90284 16.228C3.85771 16.1784 3.83119 16.1146 3.82778 16.0477ZM13.517 27.7207C13.4414 27.7986 13.3444 27.8522 13.2382 27.8747C13.132 27.8973 13.0215 27.8877 12.9208 27.8472C12.8201 27.8068 12.7337 27.7372 12.6726 27.6475C12.6115 27.5578 12.5785 27.4519 12.5778 27.3434V19.6461L17.3055 23.7887L13.517 27.7207ZM25.6276 28.5602C25.6064 28.653 25.5614 28.7387 25.497 28.8088C25.4325 28.8789 25.3509 28.931 25.2602 28.9598C25.1694 28.9887 25.0727 28.9934 24.9796 28.9734C24.8865 28.9534 24.8003 28.9095 24.7293 28.8459L12.91 18.4812L30.9159 5.57773L25.6276 28.5602Z" fill="#262626"/>
</svg>
