<svg width="27" height="27" viewBox="0 0 27 27" fill="none" xmlns="http://www.w3.org/2000/svg">
<rect width="27" height="27" rx="3" fill="#F6F6F6"/>
<path opacity="0.5" fill-rule="evenodd" clip-rule="evenodd" d="M15.6808 8.29305C15.6808 7.77753 15.8658 7.27811 16.204 6.88063C16.5422 6.48316 17.0125 6.21247 17.534 6.11511C18.0555 6.01775 18.5957 6.09979 19.0616 6.34714C19.5276 6.59449 19.8902 6.99169 20.0871 7.47045C20.2841 7.94921 20.303 8.47961 20.1408 8.97048C19.9785 9.46134 19.6451 9.88199 19.198 10.1601C18.7508 10.4382 18.2178 10.5565 17.6906 10.4944C17.1634 10.4324 16.6749 10.194 16.3091 9.82029L9.89627 13.2791C9.99425 13.6451 9.99425 14.0293 9.89627 14.3953L16.3091 17.8542C16.6923 17.463 17.2094 17.221 17.7633 17.1735C18.3172 17.1259 18.87 17.2761 19.318 17.5959C19.766 17.9157 20.0784 18.3832 20.1968 18.9106C20.3151 19.438 20.2312 19.9892 19.9608 20.4609C19.6904 20.9326 19.2521 21.2923 18.7279 21.4727C18.2038 21.6531 17.6299 21.6417 17.1138 21.4407C16.5977 21.2397 16.1749 20.8629 15.9245 20.3809C15.6742 19.8989 15.6135 19.3448 15.754 18.8225L9.34112 15.3645C9.02649 15.686 8.61978 15.9086 8.1735 16.0035C7.72722 16.0984 7.26188 16.0613 6.83758 15.8968C6.41329 15.7324 6.04951 15.4483 5.79326 15.0811C5.537 14.714 5.40002 14.2807 5.40002 13.8372C5.40002 13.3937 5.537 12.9605 5.79326 12.5933C6.04951 12.2262 6.41329 11.942 6.83758 11.7776C7.26188 11.6132 7.72722 11.576 8.1735 11.6709C8.61978 11.7658 9.02649 11.9884 9.34112 12.31L15.754 8.85116C15.7053 8.66889 15.6807 8.48135 15.6808 8.29305Z" fill="#262626"/>
</svg>
