<svg width="26" height="26" viewBox="0 0 26 26" fill="none" xmlns="http://www.w3.org/2000/svg">
<g id="iconamoon:phone-thin">
<path id="Vector" d="M5.96336 6.92018C6.06723 10.0304 7.00511 13.0555 8.67885 15.679C10.3526 18.3025 12.7007 20.428 15.4774 21.833C17.6148 22.91 19.9693 21.3879 20.486 19.0501L20.7198 17.9923C20.8489 17.4084 20.4775 16.8348 19.9096 16.6483C18.9674 16.3405 18.0723 15.9041 17.2495 15.3514L15.2862 16.6039C12.9456 14.7704 11.3011 12.1927 10.6248 9.29733L12.588 8.04483C12.4332 7.06573 12.4143 6.06994 12.532 5.08568C12.6034 4.49126 12.2396 3.91379 11.6556 3.78474L10.5978 3.55095C8.26009 3.03427 5.8874 4.52801 5.96336 6.92018Z" stroke="#969696" stroke-linecap="round" stroke-linejoin="round"/>
</g>
</svg>
