<svg width="128" height="28" viewBox="0 0 128 28" fill="none" xmlns="http://www.w3.org/2000/svg">
<path d="M114.162 18.134L118.112 26.7887V27.3391H122.237V26.7635L118.216 18.134H114.162ZM117.281 0.713157C115.953 0.713157 114.622 0.713157 113.317 0.713157C113.317 5.87143 113.317 11.0333 113.317 16.2132C115.554 16.2132 117.856 16.2132 120.137 16.2132C127.554 16.1916 127.554 5.33906 120.137 5.33906H117.281V0.713157ZM93.9389 0.713157C90.3058 0.713157 87.8489 0.713157 84.2626 0.713157C84.2626 5.84985 84.2626 11.0333 84.2626 16.2132C87.8489 16.2132 90.5072 16.2132 94.1403 16.2132C94.1403 15.0405 94.1403 13.8427 94.1403 12.6916C91.8165 12.6916 90.4856 12.6916 88.205 12.6916C88.205 11.7599 88.205 10.875 88.205 9.96856H93.4748C93.4748 8.79589 93.4748 7.61963 93.4748 6.44697H88.205V4.25632C90.4856 4.25632 91.6367 4.25632 93.9389 4.25632C93.9389 3.06208 93.9389 1.86783 93.9389 0.713157ZM72.8597 16.2168V12.2527H75.7158C83.1331 12.2527 83.1331 0.73834 75.7158 0.716757C73.4352 0.716757 71.1331 0.716757 68.8957 0.716757C68.8957 5.90021 68.8957 11.0585 68.8957 16.2168C70.2015 16.2168 71.5288 16.2168 72.8597 16.2168ZM75.6942 8.68798H72.8597C72.8597 7.42539 72.8597 5.52252 72.8597 4.25993C73.7662 4.25993 74.7626 4.23834 75.6942 4.25993C77.9964 4.28151 77.8633 8.68798 75.6942 8.68798ZM62.982 16.2168H66.8561V15.6412L59.8597 0.515319H58.1547L51.1799 15.6412V16.2168H55.054L55.9604 14.2671H62.0719L62.982 16.2168ZM60.7914 10.8786H57.2482L58.9964 6.80309L60.7914 10.8786ZM49.3849 5.47575C49.3849 2.7959 47.2374 0.713157 44.5576 0.713157H37.9353V16.2132H45.1979C48.3633 16.2132 50.0036 14.0225 50.0252 11.3175C50.0252 9.94338 49.4281 8.7923 48.1655 8.15201C48.9209 7.53331 49.3849 6.40381 49.3849 5.47575ZM44.9137 10.0585C46.5072 10.0585 46.5288 12.6952 44.9352 12.6952H41.7698V10.0585H44.9137ZM44.2482 4.25632C45.8417 4.25632 45.8417 6.75992 44.2698 6.75992H41.7662V4.25632H44.2482ZM26.3094 16.2168V10.3031C26.8202 10.3031 27.3058 10.3031 27.8381 10.2132L31.2482 16.2132H35.6547V15.5945L31.446 8.77431C34.5252 6.80309 34.4352 3.87862 34.4352 0.713157C33.0611 0.713157 31.7122 0.713157 30.3597 0.713157C30.3597 3.61244 30.5576 6.58006 26.5935 6.58006H26.3058V0.713157C24.9317 0.713157 23.6043 0.713157 22.277 0.713157V16.2132C23.6079 16.2168 24.9389 16.2168 26.3094 16.2168ZM13.0935 7.13762L8.07554 18.1376H17.9496L13.0935 7.13762ZM3.87411 27.3427H0V26.7671L12.2302 0.515319H13.9352L21.9784 18.134H108.435L103.417 7.13402L99.4748 16.2132H95.6007V15.6376L102.576 0.511719H104.281L116.511 26.7635V27.3391C85.0144 27.3391 53.518 27.3391 22.0216 27.3391C21.241 25.5801 20.464 23.8247 19.6834 22.0621H6.31655L3.91007 27.3391H3.87411V27.3427ZM22.3957 19.0477C23.518 21.5081 24.6187 23.9758 25.7518 26.4254H112.219L108.853 19.0477H22.3957ZM120.115 8.9074C122.284 8.9074 122.417 12.6484 120.115 12.6736C119.183 12.6952 118.187 12.6736 117.281 12.6736C117.281 11.411 117.281 10.17 117.281 8.9074H120.115ZM122.37 18.134L126.32 26.7887V27.3391H127.651V26.7635L123.629 18.134H122.37ZM119.342 18.134L123.291 26.7887V27.3391H125.392V26.7635L121.371 18.134H119.342Z" fill="#C61516"/>
<path d="M39.1845 25.4406C38.6665 25.4406 38.2228 25.3279 37.8535 25.1025C37.4842 24.8747 37.2001 24.5581 37.001 24.1528C36.8044 23.7476 36.7061 23.2775 36.7061 22.7428C36.7061 22.208 36.8044 21.738 37.001 21.3327C37.2001 20.9274 37.4842 20.6121 37.8535 20.3866C38.2228 20.1588 38.6665 20.0449 39.1845 20.0449C39.7816 20.0449 40.2792 20.1948 40.6773 20.4946C41.0754 20.7919 41.3547 21.1936 41.5154 21.6996L40.6413 21.9406C40.5406 21.6025 40.3691 21.3387 40.1269 21.1492C39.8847 20.9574 39.5706 20.8615 39.1845 20.8615C38.8368 20.8615 38.5466 20.9394 38.314 21.0953C38.0838 21.2512 37.9099 21.4706 37.7924 21.7536C37.6773 22.0341 37.6185 22.3639 37.6161 22.7428C37.6161 23.1217 37.6737 23.4526 37.7888 23.7356C37.9063 24.0161 38.0814 24.2344 38.314 24.3902C38.5466 24.5461 38.8368 24.6241 39.1845 24.6241C39.5706 24.6241 39.8847 24.5281 40.1269 24.3363C40.3691 24.1444 40.5406 23.8807 40.6413 23.5449L41.5154 23.7859C41.3547 24.2919 41.0754 24.6948 40.6773 24.9946C40.2792 25.2919 39.7816 25.4406 39.1845 25.4406Z" fill="#F6F6F6"/>
<path d="M43.7656 25.3327V20.9658H42.0894V20.1528H46.3088V20.9658H44.6325V25.3327H43.7656Z" fill="#F6F6F6"/>
<path d="M47.7832 25.3327L48.4667 23.937L46.6789 20.1528H47.6573L48.9199 23.0233L50.2221 20.1528H51.1465L48.7077 25.3327H47.7832Z" fill="#F6F6F6"/>
<path d="M51.1135 26.196V24.5197C51.2813 24.5197 51.4216 24.4778 51.5343 24.3938C51.6471 24.3099 51.737 24.1936 51.8041 24.0449C51.8737 23.8962 51.9276 23.7236 51.966 23.5269C52.0044 23.3279 52.0343 23.1169 52.0559 22.8938C52.0823 22.5989 52.1051 22.3099 52.1243 22.0269C52.1435 21.7416 52.1614 21.4466 52.1782 21.142C52.1974 20.8351 52.219 20.503 52.243 20.1456L55.6207 20.1528V24.5197H56.0092V26.196H55.1459V25.3327H51.9804V26.196H51.1135ZM52.4624 24.5197H54.7538V20.9658L53.0343 20.9586C53.0176 21.2104 53.0032 21.4454 52.9912 21.6636C52.9816 21.8795 52.9684 22.0989 52.9516 22.3219C52.9372 22.5449 52.9168 22.7883 52.8905 23.0521C52.8665 23.3111 52.8401 23.5269 52.8113 23.6996C52.7849 23.8723 52.7454 24.0221 52.6926 24.1492C52.6399 24.2739 52.5631 24.3974 52.4624 24.5197Z" fill="#F6F6F6"/>
<path d="M61.1743 25.3327H60.2966V21.6816L57.8937 25.3327H57.016V20.1528H57.8937V23.8039L60.2966 20.1528H61.1743V25.3327Z" fill="#F6F6F6"/>
<path d="M66.1367 25.3327H65.2734V23.5233H63.9353L63.5648 23.491C63.1235 23.419 62.7962 23.232 62.5827 22.9298C62.3693 22.6253 62.2626 22.2619 62.2626 21.8399C62.2626 21.5545 62.3106 21.2955 62.4065 21.0629C62.5024 20.8279 62.6475 20.6337 62.8417 20.4802C63.036 20.3267 63.283 20.2272 63.5827 20.1816C63.6523 20.1696 63.7254 20.1624 63.8022 20.16C63.8813 20.1552 63.9461 20.1528 63.9964 20.1528H66.1367V25.3327ZM63.1619 25.3327H62.1799L63.3022 23.0305L64.1835 23.2248L63.1619 25.3327ZM65.2734 22.714V20.9658H64.0324C63.9844 20.9658 63.9305 20.9682 63.8705 20.973C63.8106 20.9754 63.7554 20.9838 63.705 20.9982C63.5612 21.0341 63.4473 21.0977 63.3633 21.1888C63.2818 21.2799 63.2242 21.3843 63.1907 21.5018C63.1571 21.6169 63.1403 21.7296 63.1403 21.8399C63.1403 21.9502 63.1571 22.0629 63.1907 22.178C63.2242 22.2931 63.2818 22.3962 63.3633 22.4874C63.4473 22.5785 63.5612 22.642 63.705 22.678C63.7554 22.6924 63.8106 22.702 63.8705 22.7068C63.9305 22.7116 63.9844 22.714 64.0324 22.714H65.2734Z" fill="#F6F6F6"/>
<path d="M69.0169 25.3327V20.1528H69.7975L71.5889 23.8219L73.3802 20.1528H74.1608V25.3327H73.3515V22.0125L71.7615 25.3327H71.4162L69.8299 22.0125V25.3327H69.0169Z" fill="#F6F6F6"/>
<path d="M75.3872 25.3327V20.1528H78.7325V20.9658H76.2541V22.2428H78.3009V23.0557H76.2541V24.5197H78.7325V25.3327H75.3872Z" fill="#F6F6F6"/>
<path d="M79.8114 25.3327V20.1528H83.2754V20.9658H80.6783V22.0809H81.9517C81.9996 22.0809 82.0632 22.0833 82.1423 22.0881C82.2239 22.0905 82.2982 22.0953 82.3653 22.1025C82.6555 22.136 82.8977 22.2284 83.092 22.3795C83.2886 22.5305 83.4361 22.7212 83.5344 22.9514C83.6351 23.1816 83.6855 23.4334 83.6855 23.7068C83.6855 23.9802 83.6363 24.2332 83.538 24.4658C83.4397 24.696 83.2922 24.8866 83.0956 25.0377C82.9013 25.1864 82.6579 25.2775 82.3653 25.3111C82.2982 25.3183 82.2251 25.3243 82.1459 25.3291C82.0668 25.3315 82.002 25.3327 81.9517 25.3327H79.8114ZM80.6783 24.5197H81.9157C81.9637 24.5197 82.0176 24.5173 82.0776 24.5125C82.1375 24.5078 82.1927 24.5006 82.243 24.491C82.4589 24.4454 82.6075 24.3447 82.6891 24.1888C82.7706 24.0329 82.8114 23.8723 82.8114 23.7068C82.8114 23.5389 82.7706 23.3783 82.6891 23.2248C82.6075 23.0689 82.4589 22.9682 82.243 22.9226C82.1927 22.9106 82.1375 22.9034 82.0776 22.901C82.0176 22.8962 81.9637 22.8938 81.9157 22.8938H80.6783V24.5197Z" fill="#F6F6F6"/>
<path d="M84.622 25.3327V20.1528H87.9673V20.9658H85.4889V22.2428H87.5356V23.0557H85.4889V24.5197H87.9673V25.3327H84.622Z" fill="#F6F6F6"/>
<path d="M88.6864 25.3327V24.6061C88.8015 24.6133 88.8987 24.6049 88.9778 24.5809C89.0569 24.5545 89.1229 24.5054 89.1756 24.4334C89.2308 24.3591 89.2788 24.2548 89.3195 24.1205C89.3603 23.9838 89.3999 23.8123 89.4382 23.6061C89.4934 23.3111 89.539 23.0042 89.5749 22.6852C89.6133 22.3639 89.6457 22.0485 89.6721 21.7392C89.6984 21.4274 89.7188 21.1348 89.7332 20.8615C89.7476 20.5881 89.7596 20.3519 89.7692 20.1528H93.2368V25.3327H92.3699V20.9658H90.5713C90.5593 21.1265 90.545 21.3207 90.5282 21.5485C90.5138 21.7739 90.4934 22.0185 90.467 22.2823C90.443 22.5461 90.4119 22.8195 90.3735 23.1025C90.3375 23.3854 90.2932 23.6636 90.2404 23.937C90.1924 24.1864 90.1349 24.4106 90.0677 24.6097C90.0006 24.8063 89.9107 24.9694 89.798 25.0989C89.6876 25.226 89.5426 25.3111 89.3627 25.3543C89.1852 25.3974 88.9598 25.3902 88.6864 25.3327Z" fill="#F6F6F6"/>
<path d="M98.6192 25.3327H97.7415V21.6816L95.3386 25.3327H94.4609V20.1528H95.3386V23.8039L97.7415 20.1528H98.6192V25.3327Z" fill="#F6F6F6"/>
</svg>
