<svg width="114" height="38" viewBox="0 0 114 38" fill="none" xmlns="http://www.w3.org/2000/svg">
<rect width="113.739" height="37.6403" fill="#C61516"/>
<path d="M95.0199 22.0903L98.0148 28.6528V29.0702H101.143V28.6337L98.0939 22.0903H95.0199ZM97.3847 8.88077C96.3783 8.88077 95.3691 8.88077 94.379 8.88077C94.379 12.7921 94.379 16.7061 94.379 20.6338C96.0755 20.6338 97.8211 20.6338 99.5504 20.6338C105.175 20.6175 105.175 12.3884 99.5504 12.3884H97.3847V8.88077ZM79.6856 8.88077C76.9308 8.88077 75.0678 8.88077 72.3485 8.88077C72.3485 12.7757 72.3485 16.7061 72.3485 20.6338C75.0678 20.6338 77.0835 20.6338 79.8383 20.6338C79.8383 19.7446 79.8383 18.8364 79.8383 17.9635C78.0763 17.9635 77.0671 17.9635 75.3379 17.9635C75.3379 17.2571 75.3379 16.5861 75.3379 15.8988H79.3337C79.3337 15.0096 79.3337 14.1177 79.3337 13.2285H75.3379V11.5674C77.0671 11.5674 77.94 11.5674 79.6856 11.5674C79.6856 10.6619 79.6856 9.75632 79.6856 8.88077ZM63.7021 20.6365V17.6308H65.8678C71.492 17.6308 71.492 8.89987 65.8678 8.8835C64.1385 8.8835 62.3929 8.8835 60.6964 8.8835C60.6964 12.8139 60.6964 16.7252 60.6964 20.6365C61.6865 20.6365 62.6929 20.6365 63.7021 20.6365ZM65.8514 14.9278H63.7021C63.7021 13.9704 63.7021 12.5275 63.7021 11.5701C64.3895 11.5701 65.145 11.5538 65.8514 11.5701C67.5971 11.5865 67.4961 14.9278 65.8514 14.9278ZM56.2122 20.6365H59.1498V20.2001L53.8447 8.73076H52.5519L47.2631 20.2001V20.6365H50.2007L50.8881 19.1582H55.5222L56.2122 20.6365ZM54.5512 16.5888H51.8645L53.1901 13.4985L54.5512 16.5888ZM45.9021 12.4921C45.9021 10.46 44.2737 8.88077 42.2417 8.88077H37.2203V20.6338H42.7272C45.1275 20.6338 46.3712 18.9727 46.3876 16.9216C46.3876 15.8797 45.9348 15.0069 44.9774 14.5214C45.5502 14.0522 45.9021 13.1958 45.9021 12.4921ZM42.5117 15.967C43.72 15.967 43.7364 17.9663 42.5281 17.9663H40.1278V15.967H42.5117ZM42.0071 11.5674C43.2154 11.5674 43.2154 13.4658 42.0235 13.4658H40.1251V11.5674H42.0071ZM28.4048 20.6365V16.1524C28.7921 16.1524 29.1603 16.1524 29.564 16.0842L32.1497 20.6338H35.491V20.1647L32.2997 14.9932C34.6345 13.4985 34.5663 11.281 34.5663 8.88077C33.5244 8.88077 32.5016 8.88077 31.476 8.88077C31.476 11.0792 31.626 13.3294 28.6203 13.3294H28.4021V8.88077C27.3601 8.88077 26.3537 8.88077 25.3472 8.88077V20.6338C26.3564 20.6365 27.3656 20.6365 28.4048 20.6365ZM18.3838 13.7522L14.5788 22.0931H22.066L18.3838 13.7522ZM11.393 29.0729H8.45544V28.6365L17.7291 8.73076H19.022L25.1208 22.0903H90.6776L86.8727 13.7495L83.8833 20.6338H80.9457V20.1974L86.2345 8.72803H87.5273L96.801 28.6337V29.0702C72.9185 29.0702 49.036 29.0702 25.1535 29.0702C24.5617 27.7364 23.9725 26.4053 23.3806 25.0688H13.245L11.4203 29.0702H11.393V29.0729ZM25.4372 22.7831C26.2882 24.6488 27.1229 26.5199 27.982 28.3774H93.547L90.994 22.7831H25.4372ZM99.534 15.0941C101.179 15.0941 101.28 17.9308 99.534 17.9499C98.8276 17.9663 98.0721 17.9499 97.3847 17.9499C97.3847 16.9925 97.3847 16.0515 97.3847 15.0941H99.534ZM101.244 22.0903L104.239 28.6528V29.0702H105.248V28.6337L102.199 22.0903H101.244ZM98.9476 22.0903L101.942 28.6528V29.0702H103.535V28.6337L100.486 22.0903H98.9476Z" fill="#F6F6F6"/>
<path d="M38.1677 27.6302C37.775 27.6302 37.4386 27.5447 37.1585 27.3738C36.8785 27.201 36.663 26.961 36.5121 26.6537C36.363 26.3464 36.2885 25.99 36.2885 25.5845C36.2885 25.179 36.363 24.8226 36.5121 24.5153C36.663 24.208 36.8785 23.9689 37.1585 23.7979C37.4386 23.6252 37.775 23.5388 38.1677 23.5388C38.6205 23.5388 38.9978 23.6525 39.2997 23.8798C39.6015 24.1052 39.8134 24.4098 39.9352 24.7935L39.2724 24.9762C39.196 24.7199 39.066 24.5198 38.8824 24.3762C38.6987 24.2307 38.4605 24.158 38.1677 24.158C37.9041 24.158 37.6841 24.2171 37.5077 24.3353C37.3331 24.4535 37.2013 24.6198 37.1122 24.8344C37.0249 25.0472 36.9803 25.2972 36.9785 25.5845C36.9785 25.8718 37.0222 26.1227 37.1094 26.3373C37.1985 26.55 37.3313 26.7155 37.5077 26.8337C37.6841 26.9519 37.9041 27.011 38.1677 27.011C38.4605 27.011 38.6987 26.9383 38.8824 26.7928C39.066 26.6473 39.196 26.4473 39.2724 26.1927L39.9352 26.3755C39.8134 26.7592 39.6015 27.0646 39.2997 27.2919C38.9978 27.5174 38.6205 27.6302 38.1677 27.6302Z" fill="#F6F6F6"/>
<path d="M41.6415 27.5483V24.2371H40.3704V23.6206H43.5698V24.2371H42.2988V27.5483H41.6415Z" fill="#F6F6F6"/>
<path d="M44.6878 27.5483L45.2061 26.49L43.8505 23.6206H44.5924L45.5497 25.7972L46.5371 23.6206H47.2381L45.3888 27.5483H44.6878Z" fill="#F6F6F6"/>
<path d="M47.213 28.2029V26.9319C47.3403 26.9319 47.4467 26.9001 47.5322 26.8364C47.6176 26.7728 47.6858 26.6846 47.7367 26.5719C47.7895 26.4591 47.8304 26.3282 47.8595 26.1791C47.8886 26.0282 47.9113 25.8682 47.9277 25.699C47.9477 25.4754 47.9649 25.2563 47.9795 25.0417C47.994 24.8253 48.0077 24.6017 48.0204 24.3707C48.0349 24.138 48.0513 23.8861 48.0695 23.6152L50.6307 23.6206V26.9319H50.9252V28.2029H50.2706V27.5483H47.8704V28.2029H47.213ZM48.2359 26.9319H49.9733V24.2371L48.6696 24.2316C48.6568 24.4225 48.6459 24.6007 48.6368 24.7662C48.6296 24.9299 48.6196 25.0963 48.6068 25.2654C48.5959 25.4345 48.5805 25.619 48.5605 25.8191C48.5423 26.0154 48.5223 26.1791 48.5004 26.31C48.4804 26.4409 48.4504 26.5546 48.4104 26.651C48.3704 26.7455 48.3122 26.8392 48.2359 26.9319Z" fill="#F6F6F6"/>
<path d="M54.8418 27.5483H54.1762V24.7799L52.3542 27.5483H51.6887V23.6206H52.3542V26.3891L54.1762 23.6206H54.8418V27.5483Z" fill="#F6F6F6"/>
<path d="M58.6046 27.5483H57.9499V26.1764H56.9353L56.6544 26.1518C56.3198 26.0973 56.0716 25.9554 55.9097 25.7263C55.7479 25.4954 55.667 25.2199 55.667 24.8999C55.667 24.6835 55.7033 24.4871 55.7761 24.3107C55.8488 24.1325 55.9588 23.9852 56.1061 23.8689C56.2534 23.7525 56.4407 23.677 56.668 23.6425C56.7207 23.6334 56.7762 23.6279 56.8344 23.6261C56.8944 23.6225 56.9435 23.6206 56.9817 23.6206H58.6046V27.5483ZM56.3489 27.5483H55.6042L56.4552 25.8027L57.1235 25.95L56.3489 27.5483ZM57.9499 25.5627V24.2371H57.0089C56.9726 24.2371 56.9317 24.2389 56.8862 24.2425C56.8407 24.2443 56.7989 24.2507 56.7607 24.2616C56.6516 24.2889 56.5653 24.3371 56.5016 24.4062C56.4398 24.4753 56.3961 24.5544 56.3707 24.6435C56.3452 24.7308 56.3325 24.8162 56.3325 24.8999C56.3325 24.9835 56.3452 25.069 56.3707 25.1563C56.3961 25.2435 56.4398 25.3217 56.5016 25.3908C56.5653 25.4599 56.6516 25.5081 56.7607 25.5354C56.7989 25.5463 56.8407 25.5536 56.8862 25.5572C56.9317 25.5608 56.9726 25.5627 57.0089 25.5627H57.9499Z" fill="#F6F6F6"/>
<path d="M60.7885 27.5483V23.6206H61.3804L62.7387 26.4028L64.097 23.6206H64.6889V27.5483H64.0752V25.0308L62.8696 27.5483H62.6078L61.4049 25.0308V27.5483H60.7885Z" fill="#F6F6F6"/>
<path d="M65.6189 27.5483V23.6206H68.1555V24.2371H66.2762V25.2054H67.8282V25.8218H66.2762V26.9319H68.1555V27.5483H65.6189Z" fill="#F6F6F6"/>
<path d="M68.9735 27.5483V23.6206H71.6002V24.2371H69.6309V25.0826H70.5964C70.6328 25.0826 70.681 25.0844 70.741 25.0881C70.8028 25.0899 70.8592 25.0935 70.9101 25.099C71.1301 25.1244 71.3138 25.1944 71.4611 25.309C71.6102 25.4236 71.722 25.5681 71.7966 25.7427C71.8729 25.9172 71.9111 26.1082 71.9111 26.3155C71.9111 26.5228 71.8738 26.7146 71.7993 26.891C71.7247 27.0656 71.6129 27.2101 71.4638 27.3247C71.3165 27.4374 71.1319 27.5065 70.9101 27.532C70.8592 27.5374 70.8037 27.542 70.7437 27.5456C70.6837 27.5474 70.6346 27.5483 70.5964 27.5483H68.9735ZM69.6309 26.9319H70.5692C70.6055 26.9319 70.6464 26.9301 70.6919 26.9264C70.7374 26.9228 70.7792 26.9174 70.8174 26.9101C70.981 26.8755 71.0938 26.7992 71.1556 26.681C71.2174 26.5628 71.2483 26.4409 71.2483 26.3155C71.2483 26.1882 71.2174 26.0664 71.1556 25.95C71.0938 25.8318 70.981 25.7554 70.8174 25.7209C70.7792 25.7118 70.7374 25.7063 70.6919 25.7045C70.6464 25.7009 70.6055 25.699 70.5692 25.699H69.6309V26.9319Z" fill="#F6F6F6"/>
<path d="M72.6212 27.5483V23.6206H75.1578V24.2371H73.2786V25.2054H74.8305V25.8218H73.2786V26.9319H75.1578V27.5483H72.6212Z" fill="#F6F6F6"/>
<path d="M75.7031 27.5483V26.9974C75.7904 27.0028 75.8641 26.9965 75.9241 26.9783C75.9841 26.9583 76.0341 26.921 76.0741 26.8664C76.1159 26.8101 76.1523 26.731 76.1832 26.6291C76.2141 26.5255 76.2441 26.3955 76.2732 26.2391C76.315 26.0154 76.3496 25.7827 76.3769 25.5408C76.4059 25.2972 76.4305 25.0581 76.4505 24.8235C76.4705 24.5871 76.486 24.3653 76.4969 24.158C76.5078 23.9507 76.5169 23.7716 76.5241 23.6206H79.1535V27.5483H78.4962V24.2371H77.1324C77.1233 24.3589 77.1124 24.5062 77.0997 24.6789C77.0887 24.8499 77.0733 25.0353 77.0533 25.2354C77.0351 25.4354 77.0115 25.6427 76.9824 25.8572C76.9551 26.0718 76.9215 26.2827 76.8815 26.49C76.8451 26.6791 76.8014 26.8492 76.7505 27.0001C76.6996 27.1492 76.6314 27.2728 76.546 27.371C76.4623 27.4674 76.3523 27.532 76.2159 27.5647C76.0814 27.5974 75.9104 27.592 75.7031 27.5483Z" fill="#F6F6F6"/>
<path d="M83.2348 27.5483H82.5693V24.7799L80.7472 27.5483H80.0817V23.6206H80.7472V26.3891L82.5693 23.6206H83.2348V27.5483Z" fill="#F6F6F6"/>
</svg>
